<?xml version="1.0" encoding="utf-8"?>
<!-- Generator: Adobe Illustrator 16.0.0, SVG Export Plug-In . SVG Version: 6.00 Build 0)  -->
<!DOCTYPE svg PUBLIC "-//W3C//DTD SVG 1.1//EN" "http://www.w3.org/Graphics/SVG/1.1/DTD/svg11.dtd">
<svg version="1.1" xmlns="http://www.w3.org/2000/svg" xmlns:xlink="http://www.w3.org/1999/xlink" x="0px" y="0px" width="500px"
	 height="500px" viewBox="0 0 650 650">
	<path fill="none" d="M79.31,274c96.308,0,365.335-0.409,365.335-0.409
		s-17.399,40.323-14.344,58.653c2.351,6.818,5.75-2.771,5.75-2.771l2.171,1.253c0,0-1.339,6.692-6.51,6.692
		c-5.173,0-49.121-35.292-57.581-35.506c-1.882-0.048-3.554,0.383-4.977,1.374c0,0-1.526,0.526-3.381,1.097
		c-0.095,0.028-0.778,0.252-0.778,0.252c-1.035,5.673-1.51,21.782-0.029,33.058c3.482,26.491,6.655,69.888,5.598,93.155
		c-1.059,23.264-1.059,25.453,1.058,46.604c2.114,21.15,5.287,32.198,6.346,44.889c1.058,12.691,0.877,27.457,1.821,32.659H126.187
		c0,0,3.173-14.372,3.526-30.586c0.353-16.219,9.635-81.073,10.105-89.065c0.47-7.988-0.941-25.933-1.41-42.383
		c-0.47-16.452,0-14.848,0-26.129c0-11.279,0.469-18.82,2.254-27.752c1.785-8.932,0.283-16.387,1.271-22.806
		c0.987-6.422-1.172-13.399-1.172-13.399l-0.218,0.348c-15.256,18.367-38.604,37.367-43.207,39.363
		c-4.879,2.115-9.22-6.163-9.22-6.163l1.079-0.695c0.729,3.367,10.199,10.384,7.731,1.922c-2.468-8.461-20.752-52.645-29.435-53.672
		c-2.023-0.24-4.449,3.048-4.449,3.048l-1.034,0.741c0,0-0.395-3.062,2.602-5.002c2.996-1.939,8.755-4.054,11.046-5.639
		c2.292-1.588,3.114-3.131,3.114-3.131H79.31z"/>
</svg>
