<?xml version="1.0" encoding="utf-8"?>
<!-- Generator: Adobe Illustrator 16.0.0, SVG Export Plug-In . SVG Version: 6.00 Build 0)  -->
<!DOCTYPE svg PUBLIC "-//W3C//DTD SVG 1.1//EN" "http://www.w3.org/Graphics/SVG/1.1/DTD/svg11.dtd">

<svg version="1.1" xmlns="http://www.w3.org/2000/svg" xmlns:xlink="http://www.w3.org/1999/xlink" viewBox="0 0 100 100" xml:space="preserve">
<path fill="none" stroke="#FFF" stroke-width="2" stroke-miterlimit="10"
	d="M84.25,98c-0.521,0-2.292,0.261-2.812,0.261
	c-0.958,0-2.205-0.397-3.163-0.397c-0.646,0-1.879,0.319-2.524,0.319c-0.812,0-3.125-0.174-3.938-0.174
	c-1.334,0-3.938,0.484-5.271,0.484c-0.916,0-2.375-0.776-3.291-0.776c-0.584,0-4.041,0.49-4.625,0.49
	c-1.688,0-4.938-0.499-6.625-0.499c-1.583,0-3.792,0.355-5.375,0.355c-1.458,0-3,0.364-4.458,0.364
	c-1.479,0-4.396-0.469-5.876-0.469c-0.875,0-2.541,0.523-3.416,0.523c-0.917,0-4.037-0.244-4.954-0.244
	c-1.625,0-3.13,0.258-4.755,0.258c-0.854,0-3.146-0.498-4-0.498c-1.062,0-4.166,0.105-4.166,0.105L14,98C7.373,98,2,92.627,2,86v-1
	c0,0,0-1.931,0-2.608c0-0.514-0.208-2.261-0.208-2.773c0-0.945,0.424-2.175,0.424-3.119c0-0.637-0.307-1.854-0.307-2.489
	c0-0.802,0.181-3.082,0.181-3.883c0-1.314-0.481-3.883-0.481-5.197c0-0.904,0.778-2.343,0.778-3.246c0-0.575-0.49-3.986-0.49-4.562
	c0-1.664,0.5-4.868,0.5-6.532c0-1.562-0.355-3.74-0.355-5.301c0-1.438-0.364-2.958-0.364-4.396c0-1.459,0.469-4.335,0.469-5.794
	c0-0.863-0.523-2.505-0.523-3.368c0-0.904,0.244-3.981,0.244-4.885c0-1.603-0.258-3.086-0.258-4.689
	c0-0.842,0.498-3.103,0.498-3.944c0-1.048-0.132-3.633-0.132-3.633L2,14C2,7.373,7.373,2,14,2c0,0,2.062,0,2.75,0
	c0.521,0,2.292-0.156,2.812-0.156c0.958,0,2.205,0.45,3.163,0.45C23.371,2.294,24.604,2,25.25,2c0.812,0,3.125,0.188,3.938,0.188
	c1.333,0,3.938-0.479,5.271-0.479c0.917,0,2.375,0.781,3.292,0.781C38.333,2.489,41.792,2,42.375,2C44.062,2,47.312,2.5,49,2.5
	c1.583,0,3.792-0.354,5.375-0.354c1.458,0,3-0.364,4.458-0.364c1.479,0,4.396,0.469,5.876,0.469c0.875,0,2.541-0.523,3.416-0.523
	c0.917,0,4.037,0.244,4.954,0.244c1.625,0,3.13-0.258,4.755-0.258c0.854,0,3.146,0.498,4,0.498c1.062,0,4.166-0.21,4.166-0.21
	c6.627,0,12,5.372,12,11.999v1c0,0,0,1.981,0,2.659c0,0.514,0.211,2.261,0.211,2.773c0,0.945-0.424,2.175-0.424,3.119
	c0,0.637,0.309,1.854,0.309,2.489c0,0.802-0.182,3.082-0.182,3.883c0,1.314,0.482,3.883,0.482,5.197
	c0,0.904-0.779,2.343-0.779,3.246c0,0.575,0.49,3.986,0.49,4.562c0,1.664-0.5,4.868-0.5,6.532c0,1.562,0.355,3.74,0.355,5.301
	c0,1.438,0.364,2.958,0.364,4.396c0,1.459-0.469,4.335-0.469,5.794c0,0.863,0.523,2.506,0.523,3.368
	c0,0.904-0.244,3.981-0.244,4.886c0,1.603,0.258,3.086,0.258,4.688c0,0.842-0.498,3.103-0.498,3.944c0,1.048,0.08,2.521,0.08,2.521
	L98,86c0,6.627-5.373,12-12,12H84.25z"/>
</svg>
