<?xml version="1.0" encoding="utf-8"?>
<!-- Generator: Adobe Illustrator 16.0.0, SVG Export Plug-In . SVG Version: 6.00 Build 0)  -->
<!DOCTYPE svg PUBLIC "-//W3C//DTD SVG 1.1//EN" "http://www.w3.org/Graphics/SVG/1.1/DTD/svg11.dtd">
<svg version="1.1" xmlns="http://www.w3.org/2000/svg" xmlns:xlink="http://www.w3.org/1999/xlink" x="0px" y="0px" width="30px"
	 height="30px" viewBox="0 0 30 30" enable-background="new 0 0 30 30" xml:space="preserve">
<g id="Layer_2">
	<path fill="none" stroke="#FFFFFF" stroke-width="2" stroke-miterlimit="10" d="M28.165,28.143c0,0-0.547,0.153-0.743,0
		c-0.198-0.152-0.701,0-0.701,0s-1.006,0.132-1.136,0c-0.131-0.132-0.503,0-0.503,0s-0.683,0.137-0.873,0.066
		c-0.192-0.066-0.7-0.177-1.225-0.066c-0.525,0.108-0.264,0.164-1.05,0c-0.787-0.163-1.017-0.163-1.182,0
		c-0.163,0.164-0.49,0-0.623,0c-0.13,0-0.163-0.281-0.852-0.009c-0.689,0.271-0.656,0.009-0.919,0.009
		c-0.262,0-0.688-0.015-0.982-0.007c-0.295,0.007-0.46,0.204-0.656,0.007c-0.197-0.196-0.328-0.015-0.623-0.007
		c-0.295,0.007-0.623,0.171-0.884,0.007c0,0-0.034-0.132-0.167,0c0,0-0.545,0.153-0.743,0c-0.195-0.152-0.699,0-0.699,0
		s-1.006,0.132-1.137,0c-0.13-0.132-0.503,0-0.503,0s-0.683,0.137-0.875,0.066c-0.19-0.066-0.699-0.177-1.224-0.066
		c-0.523,0.108-0.262,0.164-1.049,0c-0.787-0.163-1.017-0.163-1.18,0c-0.164,0.164-0.492,0-0.624,0
		c-0.131,0-0.164-0.281-0.853-0.009c-0.688,0.271-0.656,0.009-0.918,0.009s-0.689-0.015-0.983-0.007
		c-0.294,0.007-0.459,0.204-0.655,0.007c-0.198-0.196-0.328-0.015-0.623-0.007c-0.295,0.007-0.58-0.031-0.886,0.007
		c-0.177,0.022-0.154-0.153-0.154-0.153s-0.153-0.547,0-0.743c0.153-0.198,0-0.7,0-0.7s-0.131-1.006,0-1.137s0-0.503,0-0.503
		s-0.136-0.683-0.067-0.873c0.067-0.191,0.176-0.699,0.067-1.225c-0.109-0.524-0.164-0.264,0-1.05c0.164-0.787,0.164-1.016,0-1.182
		c-0.164-0.163,0-0.489,0-0.623c0-0.13,0.282-0.163,0.009-0.852c-0.271-0.688-0.009-0.656-0.009-0.918s0.014-0.688,0.007-0.982
		c-0.007-0.295-0.204-0.46-0.007-0.657c0.197-0.196,0.014-0.327,0.007-0.623c-0.007-0.294-0.171-0.623-0.007-0.884
		c0,0,0.131-0.034,0-0.167c0,0-0.153-0.545,0-0.743c0.153-0.195,0-0.699,0-0.699s-0.131-1.005,0-1.137c0.131-0.13,0-0.503,0-0.503
		s-0.136-0.683-0.067-0.875c0.067-0.19,0.176-0.699,0.067-1.224c-0.109-0.523-0.164-0.262,0-1.049c0.164-0.787,0.164-1.017,0-1.18
		c-0.164-0.164,0-0.492,0-0.624c0-0.131,0.282-0.164,0.009-0.853C1.681,5.299,1.943,5.332,1.943,5.07
		c0-0.263,0.014-0.689,0.007-0.984C1.943,3.792,1.746,3.626,1.943,3.431C2.14,3.232,1.957,3.103,1.95,2.808
		C1.943,2.512,2.001,2.226,1.943,1.921c-0.037-0.19,0.154-0.154,0.154-0.154s0.547-0.153,0.744,0s0.699,0,0.699,0
		s1.005-0.131,1.137,0c0.131,0.131,0.502,0,0.502,0S5.863,1.632,6.054,1.7c0.191,0.067,0.699,0.176,1.223,0.067
		c0.525-0.109,0.263-0.164,1.05,0c0.787,0.164,1.017,0.164,1.181,0c0.164-0.164,0.492,0,0.623,0c0.132,0,0.164,0.282,0.852,0.009
		c0.689-0.271,0.656-0.009,0.918-0.009c0.263,0,0.69,0.015,0.984,0.007c0.294-0.007,0.459-0.204,0.656-0.007
		c0.196,0.197,0.327,0.015,0.623,0.007c0.295-0.007,0.623-0.171,0.884-0.007c0,0,0.034,0.131,0.167,0c0,0,0.545-0.153,0.743,0
		c0.196,0.153,0.698,0,0.698,0s1.007-0.131,1.138,0s0.503,0,0.503,0s0.683-0.136,0.874-0.067c0.191,0.067,0.699,0.176,1.225,0.067
		c0.524-0.109,0.262-0.164,1.05,0c0.786,0.164,1.017,0.164,1.18,0c0.163-0.164,0.492,0,0.622,0c0.132,0,0.165,0.282,0.854,0.009
		c0.687-0.271,0.654-0.009,0.916-0.009c0.265,0,0.69,0.015,0.984,0.007c0.295-0.007,0.459-0.204,0.655-0.007
		c0.197,0.197,0.329,0.015,0.624,0.007c0.295-0.007,0.622-0.171,0.886-0.007c0,0,0.206-0.007,0.153,0.154c0,0,0.152,0.547,0,0.744
		s0,0.699,0,0.699s0.132,1.005,0,1.137c-0.132,0.131,0,0.502,0,0.502s0.136,0.684,0.066,0.875c-0.066,0.191-0.177,0.699-0.066,1.224
		c0.108,0.525,0.163,0.263,0,1.05c-0.163,0.787-0.163,1.017,0,1.181s0,0.492,0,0.623c0,0.132-0.282,0.164-0.01,0.852
		c0.272,0.689,0.01,0.657,0.01,0.918c0,0.263-0.015,0.69-0.007,0.984c0.007,0.295,0.204,0.459,0.007,0.656s-0.015,0.328-0.007,0.623
		c0.007,0.295,0.17,0.623,0.007,0.884c0,0-0.132,0.033,0,0.167c0,0,0.152,0.545,0,0.742c-0.152,0.197,0,0.698,0,0.698
		s0.132,1.007,0,1.139c-0.132,0.131,0,0.502,0,0.502s0.136,0.684,0.066,0.875c-0.066,0.19-0.177,0.699-0.066,1.224
		c0.108,0.524,0.163,0.262,0,1.05c-0.163,0.787-0.163,1.017,0,1.181c0.163,0.163,0,0.491,0,0.621c0,0.132-0.282,0.165-0.01,0.854
		c0.272,0.687,0.01,0.654,0.01,0.916c0,0.265-0.015,0.69-0.007,0.984c0.007,0.295,0.204,0.459,0.007,0.655
		c-0.197,0.197-0.015,0.329-0.007,0.624c0.007,0.295,0.17,0.622,0.007,0.886C28.318,27.989,28.398,28.195,28.165,28.143z"/>
</g>
<g id="Layer_4" display="none">
	<path display="inline" fill="none" stroke="#FFFFFF" stroke-width="2" stroke-miterlimit="10" d="M1.5,1.5c0,0,1.25-0.625,2.417,0
		s1.958,0,2.875,0s4.333-0.75,5.042,0s3,0.333,3.167,0s3.208-0.58,4,0.043s3.166,0.036,3.75-0.004s1.584-0.29,2.417-0.04
		S28.25,0.996,28.5,1.54s-0.333,1.085-0.333,2.669s0.916,2.208,0.396,4.167s-0.521,4.667-0.062,5.333s0,3.25,0,3.625
		s-0.542,2.792,0,3.875s0.416,2.875,0,3.708s-0.292,1.958,0,2.375s0.334,1.499-0.708,1.208s-3.749-0.417-4.708,0
		s-3.125,0.431-3.625,0.049s-2-0.424-2.75-0.049c-0.75,0.375-2.209,0.625-3.584,0s-3.375-0.334-4.25,0s-2.208,0.291-2.5,0
		S4,27.666,3.042,28.5S1.333,28.334,1.5,27.709s0.417-2.334,0-3.167s-0.672-3.958-0.023-5.208s0.231-4.5,0.023-5.5
		s-0.458-3.334,0-3.667s0.208-1.5,0-2.458s-0.583-2.334,0-3.292S0.567,1.756,1.5,1.5z"/>
</g>
</svg>
