<?xml version="1.0" encoding="utf-8"?>
<!-- Generator: Adobe Illustrator 16.0.0, SVG Export Plug-In . SVG Version: 6.00 Build 0)  -->
<!DOCTYPE svg PUBLIC "-//W3C//DTD SVG 1.1//EN" "http://www.w3.org/Graphics/SVG/1.1/DTD/svg11.dtd">
<svg version="1.1" id="Layer_1" xmlns="http://www.w3.org/2000/svg" xmlns:xlink="http://www.w3.org/1999/xlink" x="0px" y="0px"
	 width="160px" height="20px" viewBox="0 0 160 20" enable-background="new 0 0 160 20" xml:space="preserve">
<g>
	<path fill="#131C27" d="M66.793,15.391L66.793,15.391l-0.119,0.424L66.793,15.391L66.793,15.391z"/>
	<path fill="#131C27" d="M67.408,16.311l-0.132-0.002L67.408,16.311z"/>
	<path fill="#131C27" d="M67.539,16.311h-0.131H67.539z"/>
	<path fill="#131C27" d="M67.443,16.889l0.138-0.522L67.443,16.889L67.443,16.889L67.443,16.889z"/>
	<path fill="#131C27" d="M70.35,14.475l-0.256,1.203L70.35,14.475z"/>
	<path fill="#131C27" d="M69.69,14.475l-0.194,0.899L69.69,14.475L69.69,14.475z"/>
	<path fill="#131C27" d="M70.305,14.42h-0.547c-0.031,0-0.061,0.023-0.068,0.055l-0.193,0.899l-0.193,0.899
		c-0.008,0.028-0.037,0.054-0.068,0.054h-0.332h-0.055c-0.385,0-0.34-0.267-0.262-0.628c0.002-0.006,0.002-0.01,0.002-0.014
		l0.01-0.045c0-0.004,0.001-0.007,0.002-0.01l0.017-0.092l0.02-0.102c0.005-0.029,0.015-0.074,0.02-0.102l0.089-0.432l0.088-0.434
		c0.006-0.029-0.014-0.054-0.044-0.054h-0.563c-0.029,0-0.059,0.024-0.065,0.054l-0.121,0.573l-0.12,0.574v0.001l-0.012,0.052
		c-0.14,0.638-0.104,1.243,0.654,1.261c0.012,0,0.021,0,0.021,0h1.188c0.031,0,0.061-0.022,0.066-0.053l0.258-1.204l0.256-1.204
		C70.355,14.443,70.336,14.42,70.305,14.42L70.305,14.42z"/>
	<path fill="#131C27" d="M72.49,16.333c0.029,0,0.051,0.024,0.045,0.053l-0.055,0.263"/>
	<path fill="#131C27" d="M72.428,16.907l0.053-0.261L72.428,16.907L72.428,16.907L72.428,16.907z"/>
	<path fill="#131C27" d="M71.025,15.999c0-0.028,0.031-0.078,0.062-0.078H71.02C70.988,16.229,71.025,15.999,71.025,15.999
		L71.025,15.999z"/>
	<path fill="#131C27" d="M72.49,16.333c0.029,0,0.051,0.024,0.045,0.053l-0.055,0.263l-0.008,0.041"/>
	<path fill="#131C27" d="M72.428,16.907l0.045-0.218L72.428,16.907L72.428,16.907L72.428,16.907z"/>
	<path fill="#131C27" d="M63.422,16.004l0.084-0.375l-0.097,0.43l-0.094,0.438l0.082-0.384
		C63.403,16.084,63.414,16.035,63.422,16.004L63.422,16.004z"/>
	<path fill="#131C27" d="M64.439,14.413h-0.602c-0.031,0-0.061,0.024-0.067,0.056l-0.058,0.252l-0.057,0.252
		c-0.006,0.028,0.012,0.053,0.043,0.053h0.605c0.031,0,0.062-0.023,0.068-0.053l0.055-0.252l0.055-0.252l0,0
		C64.489,14.438,64.47,14.413,64.439,14.413L64.439,14.413z"/>
	<path fill="#131C27" d="M64.309,15.25L64.309,15.25l-0.176,0.816L64.309,15.25z"/>
	<path fill="#131C27" d="M63.592,15.25l-0.086,0.379L63.592,15.25z"/>
	<path fill="#131C27" d="M64.266,15.197h-0.607c-0.029,0-0.061,0.023-0.066,0.053l-0.086,0.379l-0.084,0.375
		c-0.008,0.031-0.019,0.08-0.024,0.109l-0.082,0.384l-0.081,0.388c-0.007,0.028-0.02,0.075-0.029,0.104c0,0-0.113,0.337-0.304,0.333
		c-0.009,0-0.017,0-0.024,0c-0.092-0.004-0.164-0.004-0.164-0.004l0,0c-0.031,0-0.062,0.022-0.068,0.053l-0.062,0.265L62.519,17.9
		c-0.007,0.029,0.013,0.055,0.042,0.055c0.107,0.001,0.35,0.004,0.497,0.004c0.475,0,0.726-0.264,0.887-1.021l0.188-0.871
		l0.176-0.815C64.314,15.221,64.295,15.197,64.266,15.197L64.266,15.197z"/>
	<path fill="#131C27" d="M72.875,16.936c-0.029,0-0.049-0.023-0.043-0.054l0.457-2.136"/>
	<path fill="#131C27" d="M73.51,16.882l0.186-0.911L73.51,16.882z"/>
	<path fill="#131C27" d="M72.84,16.908c-0.004-0.014-0.002-0.051,0.004-0.08l0.217-1.016l-0.229,1.068
		c-0.006,0.029,0.014,0.053,0.043,0.053h0.057C72.9,16.936,72.842,16.924,72.84,16.908L72.84,16.908z"/>
	<path fill="#131C27" d="M73.604,16.427l0.08-0.403l0,0L73.604,16.427L73.604,16.427z"/>
	<path fill="#131C27" d="M73.521,16.828l0.08-0.401L73.521,16.828z"/>
	<path fill="#131C27" d="M73.684,16.023c0.006-0.029,0.016-0.078,0.023-0.107l0.086-0.406l-0.098,0.461L73.684,16.023L73.684,16.023
		z"/>
	<path fill="#131C27" d="M73.297,14.711c-0.008,0.029-0.016,0.064-0.02,0.089l-0.217,1.015l0.229-1.067L73.297,14.711L73.297,14.711
		z"/>
	<path fill="#131C27" d="M75.426,14.994l-0.023-0.104l-0.025-0.107l-0.012-0.053c-0.051-0.191-0.193-0.304-0.508-0.304H74.37h-0.451
		H73.88h-0.467c-0.031,0-0.061,0.022-0.066,0.056l0,0l-0.023,0.104l-0.025,0.125l-0.008,0.035l-0.229,1.066l-0.217,1.016
		c-0.006,0.029-0.008,0.066-0.004,0.08c0.004,0.016,0.061,0.025,0.092,0.025h0.457c0.031,0,0.068-0.004,0.086-0.011
		c0.016-0.007,0.041-0.065,0.047-0.096l0.08-0.401l0.082-0.402l0,0l0.012-0.053l0.098-0.462l0.086-0.407
		c0.008-0.031,0.037-0.056,0.068-0.056h1.438C75.414,15.047,75.434,15.021,75.426,14.994L75.426,14.994z"/>
	<path fill="#131C27" d="M72.082,15.34L72.082,15.34c-0.004,0.033-0.035,0.057-0.064,0.057h-0.83c-0.029,0-0.043-0.02-0.039-0.043
		c0-0.002,0-0.002,0-0.002l0,0V15.35c0,0,0.002-0.006,0.006-0.016c0.076-0.209,0.238-0.35,0.543-0.35
		C72.037,14.984,72.104,15.154,72.082,15.34L72.082,15.34z M71.838,14.382c-1.064,0-1.316,0.647-1.457,1.3
		c-0.143,0.664-0.129,1.285,0.971,1.285h0.041c0.002,0,0.006,0,0.01,0h0.031h0.01h0.029c0.004,0,0.008,0,0.014,0
		c0.01,0,0.021,0,0.033,0h0.008c0.043,0,0.088,0,0.131,0h0.004c0.289-0.001,0.58-0.004,0.699-0.005c0.031,0,0.061-0.024,0.066-0.055
		l0.045-0.218l0.008-0.041l0.055-0.262c0.006-0.029-0.016-0.055-0.045-0.055H71.5c-0.395,0-0.51-0.104-0.469-0.412h1.584l0,0l0,0
		c0.025,0,0.049-0.02,0.059-0.041c0.002-0.004,0.002-0.01,0.004-0.014l0,0C72.912,14.979,72.846,14.382,71.838,14.382L71.838,14.382
		z"/>
	<path fill="#131C27" d="M66.808,15.338l-0.015,0.053l0,0l-0.119,0.424l-0.12,0.424c-0.009,0.029-0.04,0.053-0.07,0.053h-0.632
		c-0.48,0-0.597-0.375-0.48-0.93c0.117-0.565,0.346-0.918,0.818-0.953C66.835,14.357,66.964,14.812,66.808,15.338L66.808,15.338z
		 M67.242,16.258c0,0,0.298-0.725,0.365-1.143c0.093-0.559-0.188-1.371-1.271-1.371c-1.076,0-1.543,0.773-1.721,1.617
		c-0.18,0.849,0.055,1.593,1.125,1.588l0.845-0.006l0.789-0.002c0.03,0,0.062-0.023,0.069-0.053l0.138-0.523
		c0.007-0.031-0.011-0.055-0.042-0.057h-0.131l-0.133-0.002c-0.025,0-0.041-0.017-0.037-0.037
		C67.238,16.268,67.24,16.262,67.242,16.258L67.242,16.258z"/>
	<path fill="#131C27" d="M72.572,15.771c0,0.021-0.018,0.037-0.037,0.037s-0.037-0.016-0.037-0.037c0-0.02,0.018-0.035,0.037-0.035
		S72.572,15.753,72.572,15.771z"/>
	<path fill="#246CAB" d="M64.934,4.668c-1.027,1.476-0.899,3.397-0.115,4.968c0.02,0.036,0.039,0.074,0.058,0.11
		c0.013,0.023,0.024,0.049,0.037,0.072c0.007,0.013,0.016,0.026,0.022,0.039c0.014,0.025,0.027,0.049,0.041,0.074
		c0.024,0.043,0.05,0.085,0.076,0.128c0.014,0.023,0.027,0.046,0.042,0.071c0.028,0.046,0.058,0.09,0.087,0.135
		c0.012,0.02,0.024,0.039,0.037,0.058c0.041,0.061,0.082,0.122,0.126,0.181c0.001,0.003,0.003,0.004,0.004,0.006
		c0.007,0.01,0.014,0.02,0.021,0.029c0.037,0.052,0.076,0.102,0.115,0.15c0.014,0.021,0.029,0.037,0.043,0.057
		c0.035,0.044,0.07,0.087,0.105,0.13c0.014,0.017,0.027,0.033,0.041,0.049c0.049,0.056,0.098,0.112,0.148,0.168l0.002,0.003
		c0.003,0.004,0.005,0.006,0.006,0.008c0.049,0.055,0.1,0.105,0.15,0.157c0.016,0.017,0.032,0.033,0.048,0.05
		c0.04,0.039,0.08,0.078,0.12,0.117c0.016,0.016,0.033,0.032,0.05,0.047c0.054,0.051,0.108,0.102,0.164,0.148
		c0.001,0.001,0.001,0.001,0.003,0.003c0.009,0.008,0.02,0.017,0.027,0.022c0.05,0.043,0.1,0.086,0.15,0.127
		c0.021,0.016,0.041,0.033,0.062,0.05c0.041,0.03,0.083,0.065,0.124,0.098c0.022,0.017,0.045,0.033,0.066,0.052
		c0.047,0.033,0.094,0.064,0.141,0.1c0.017,0.013,0.033,0.023,0.05,0.035c0.005,0.004,0.009,0.008,0.015,0.011
		c0.045,0.032,0.09,0.062,0.135,0.091c0.02,0.012,0.04,0.023,0.06,0.037c0.069,0.046,0.141,0.089,0.212,0.131
		c0.02,0.01,0.039,0.021,0.06,0.033c0.052,0.029,0.104,0.059,0.159,0.088c0.029,0.018,0.059,0.032,0.088,0.048
		c0.038,0.021,0.076,0.039,0.113,0.06c0.01,0.004,0.018,0.008,0.027,0.014c0.016,0.006,0.031,0.014,0.047,0.021
		c0.059,0.028,0.119,0.058,0.18,0.084c0.014,0.006,0.025,0.01,0.039,0.019c0.069,0.028,0.141,0.06,0.211,0.086
		c0.016,0.009,0.034,0.015,0.051,0.021c0.066,0.024,0.133,0.051,0.199,0.073c0.008,0.003,0.017,0.007,0.025,0.009
		c0.072,0.024,0.146,0.049,0.221,0.072c0.019,0.006,0.036,0.012,0.054,0.018c0.077,0.021,0.151,0.049,0.229,0.063
		c4.971,0.905,6.412-2.986,6.412-2.986c-1.211,1.579-3.363,1.995-5.402,1.532c-0.076-0.018-0.152-0.041-0.229-0.064
		c-0.018-0.004-0.037-0.01-0.057-0.016c-0.074-0.023-0.146-0.047-0.219-0.072c-0.01-0.004-0.02-0.008-0.029-0.01
		c-0.065-0.023-0.131-0.048-0.193-0.072c-0.019-0.008-0.037-0.015-0.055-0.021c-0.07-0.027-0.14-0.059-0.209-0.087
		c-0.014-0.007-0.027-0.013-0.041-0.021c-0.06-0.025-0.117-0.053-0.176-0.08c-0.018-0.008-0.033-0.018-0.051-0.024
		c-0.047-0.022-0.092-0.046-0.137-0.069c-0.03-0.016-0.061-0.029-0.09-0.048c-0.057-0.028-0.109-0.06-0.164-0.091
		c-0.018-0.01-0.037-0.02-0.055-0.03c-0.072-0.043-0.143-0.087-0.213-0.131c-0.02-0.013-0.037-0.024-0.057-0.036
		c-0.051-0.033-0.102-0.066-0.152-0.102c-0.016-0.012-0.031-0.024-0.048-0.035c-0.048-0.033-0.096-0.066-0.144-0.104
		c-0.021-0.016-0.042-0.032-0.062-0.047c-0.043-0.033-0.086-0.067-0.129-0.101c-0.02-0.016-0.039-0.03-0.059-0.046
		c-0.053-0.046-0.107-0.091-0.159-0.137c-0.006-0.006-0.013-0.01-0.019-0.014c-0.057-0.05-0.113-0.102-0.168-0.153
		c-0.016-0.017-0.032-0.03-0.048-0.046c-0.041-0.041-0.081-0.079-0.122-0.12c-0.016-0.016-0.031-0.032-0.047-0.046
		c-0.051-0.053-0.1-0.104-0.148-0.159c-0.003-0.001-0.006-0.004-0.008-0.007c-0.052-0.057-0.102-0.114-0.15-0.171
		c-0.014-0.017-0.026-0.032-0.04-0.049c-0.036-0.043-0.073-0.088-0.109-0.134c-0.013-0.016-0.026-0.032-0.039-0.049
		c-0.043-0.056-0.085-0.111-0.126-0.167c-1.132-1.545-1.539-3.674-0.634-5.423"/>
	<path fill="#246CAB" d="M68.123,3.423C67.38,4.491,67.42,5.924,68,7.054c0.098,0.19,0.207,0.373,0.329,0.549
		c0.111,0.16,0.235,0.35,0.382,0.479c0.054,0.058,0.109,0.116,0.168,0.172c0.014,0.015,0.029,0.029,0.043,0.044
		c0.056,0.054,0.111,0.107,0.17,0.158c0.003,0.003,0.006,0.005,0.008,0.008h0.001c0.065,0.057,0.132,0.112,0.2,0.164
		c0.015,0.013,0.029,0.025,0.045,0.037c0.067,0.052,0.137,0.103,0.207,0.151c0.002,0.001,0.004,0.002,0.006,0.005
		c0.032,0.021,0.064,0.041,0.096,0.062c0.016,0.01,0.029,0.021,0.045,0.03c0.051,0.032,0.102,0.063,0.154,0.096
		c0.008,0.002,0.015,0.007,0.021,0.011c0.045,0.026,0.09,0.053,0.137,0.076c0.016,0.01,0.033,0.018,0.049,0.025
		c0.031,0.017,0.062,0.033,0.096,0.05c0.004,0.003,0.01,0.005,0.014,0.006c0.066,0.033,0.133,0.064,0.199,0.094
		c0.014,0.005,0.029,0.011,0.043,0.018c0.055,0.022,0.109,0.045,0.164,0.067c0.023,0.008,0.047,0.017,0.07,0.023
		c0.049,0.02,0.098,0.036,0.148,0.053c0.023,0.007,0.045,0.016,0.068,0.022c0.072,0.022,0.143,0.051,0.217,0.062
		c3.836,0.637,4.723-2.317,4.723-2.317c-0.799,1.151-2.346,1.698-3.996,1.27C71.735,8.45,71.662,8.43,71.59,8.407
		c-0.021-0.006-0.043-0.013-0.064-0.021c-0.051-0.017-0.102-0.033-0.152-0.052c-0.023-0.008-0.047-0.017-0.068-0.027
		c-0.057-0.02-0.109-0.042-0.164-0.064c-0.014-0.005-0.029-0.013-0.045-0.018c-0.066-0.031-0.133-0.061-0.199-0.094
		c-0.035-0.016-0.068-0.033-0.1-0.052c-0.02-0.01-0.039-0.021-0.059-0.027C70.695,8.023,70.652,8,70.611,7.977
		c-0.01-0.008-0.021-0.012-0.031-0.019c-0.051-0.029-0.104-0.062-0.154-0.094c-0.016-0.011-0.029-0.021-0.045-0.031
		c-0.035-0.021-0.066-0.044-0.1-0.066c-0.072-0.048-0.139-0.1-0.207-0.151c-0.016-0.013-0.031-0.023-0.047-0.036
		c-0.723-0.57-1.295-1.351-1.568-2.234c-0.284-0.915-0.223-1.945,0.271-2.78"/>
	<path fill="#246CAB" d="M70.807,2.494c-0.438,0.645-0.482,1.444-0.178,2.157C70.949,5.406,71.605,6,72.373,6.28
		c0.031,0.013,0.062,0.022,0.096,0.033c0.014,0.004,0.027,0.01,0.041,0.013c0.045,0.016,0.09,0.03,0.137,0.039
		c2.119,0.409,2.693-1.087,2.846-1.308c-0.504,0.727-1.348,0.9-2.387,0.648c-0.082-0.021-0.172-0.05-0.25-0.079
		c-0.102-0.035-0.203-0.077-0.299-0.123c-0.186-0.088-0.359-0.196-0.523-0.319c-0.928-0.703-1.506-2.05-0.898-3.144"/>
	<path fill="#131C27" d="M77.277,14.055c-0.031,0-0.08,0-0.111,0h-0.461c-0.029,0-0.068,0.021-0.086,0.047l-1.018,1.49
		c-0.016,0.025-0.037,0.021-0.043-0.01l-0.074-0.327c-0.006-0.03-0.037-0.055-0.068-0.055h-0.654c-0.029,0-0.047,0.022-0.039,0.055
		l0.293,1.024c0.008,0.029,0.01,0.078,0.002,0.105l-0.129,0.499c-0.008,0.029,0.012,0.054,0.043,0.054h0.645
		c0.031,0,0.062-0.023,0.07-0.054l0.127-0.499c0.008-0.027,0.029-0.072,0.047-0.098l1.652-2.189c0.02-0.025,0.008-0.046-0.023-0.046
		L77.277,14.055L77.277,14.055z"/>
</g>
<g>
	<polygon fill="#E44D26" points="4.777,17.564 3.615,4.53 16.385,4.53 15.222,17.562 9.992,19.014 	"/>
	<polygon fill="#F16529" points="10,17.904 14.226,16.732 15.221,5.596 10,5.596 	"/>
	<polygon fill="#EBEBEB" points="10,10.431 7.885,10.431 7.738,8.793 10,8.793 10,7.194 9.994,7.194 5.991,7.194 6.029,7.623 
		6.422,12.029 10,12.029 	"/>
	<polygon fill="#EBEBEB" points="10,14.582 9.993,14.583 8.212,14.104 8.099,12.828 7.233,12.828 6.494,12.828 6.718,15.339 
		9.993,16.247 10,16.246 	"/>
	<path d="M4.804,0.987h0.812V1.79H6.36V0.987h0.812v2.431H6.359V2.604H5.615v0.814H4.804V0.987L4.804,0.987z"/>
	<path d="M8.24,1.793H7.524V0.987h2.243v0.806H9.052v1.625H8.24V1.793L8.24,1.793z"/>
	<path d="M10.124,0.987h0.847l0.521,0.854l0.521-0.854h0.848v2.431h-0.81V2.213l-0.559,0.864h-0.015l-0.559-0.864v1.205h-0.795
		L10.124,0.987L10.124,0.987z"/>
	<path d="M13.265,0.987h0.812v1.627h1.143v0.803h-1.955V0.987z"/>
	<polygon fill="#FFFFFF" points="9.994,10.431 9.994,12.029 11.963,12.029 11.778,14.104 9.994,14.583 9.994,16.247 13.272,15.339 
		13.297,15.068 13.672,10.857 13.711,10.431 13.279,10.431 	"/>
	<polygon fill="#FFFFFF" points="9.994,7.194 9.994,8.188 9.994,8.789 9.994,8.793 13.852,8.793 13.852,8.793 13.856,8.793 
		13.889,8.434 13.961,7.623 14,7.194 	"/>
</g>
<g>
	<rect x="42.375" y="2.375" fill="#F7DF1E" width="15.25" height="15.25"/>
	<path d="M52.62,14.289c0.306,0.502,0.707,0.871,1.413,0.871c0.593,0,0.972-0.299,0.972-0.706c0-0.493-0.39-0.669-1.041-0.954
		l-0.36-0.154c-1.033-0.438-1.72-0.99-1.72-2.156c0-1.074,0.82-1.896,2.099-1.896c0.911,0,1.567,0.319,2.039,1.148l-1.119,0.717
		c-0.245-0.44-0.509-0.614-0.92-0.614c-0.42,0-0.688,0.266-0.688,0.614c0,0.431,0.268,0.604,0.881,0.87l0.361,0.154
		c1.216,0.521,1.903,1.053,1.903,2.248c0,1.293-1.015,1.998-2.376,1.998c-1.329,0-2.19-0.635-2.61-1.467L52.62,14.289z
		 M47.558,14.414c0.224,0.396,0.429,0.734,0.921,0.734c0.473,0,0.768-0.184,0.768-0.899V9.377h1.433v4.895
		c0,1.481-0.868,2.156-2.138,2.156c-1.148,0-1.812-0.594-2.152-1.309L47.558,14.414z"/>
</g>
<g>
	<rect x="101.859" y="1.859" fill="#F7B75D" width="16.281" height="16.282"/>
	<rect x="102.825" y="2.824" fill="#040200" width="14.351" height="14.352"/>
	<path fill="#F7B75D" d="M109.95,11.578h-2.604l-0.688,2.176h-0.913l2.419-7.12h1.001l2.418,7.12h-0.952L109.95,11.578z
		 M109.727,10.859l-0.338-1.088c-0.265-0.806-0.486-1.583-0.721-2.409h-0.039c-0.223,0.835-0.457,1.603-0.709,2.409l-0.35,1.088
		H109.727z"/>
	<path fill="#F7B75D" d="M112.342,6.816c0-0.358,0.264-0.572,0.611-0.572c0.352,0,0.611,0.213,0.611,0.572
		c0,0.333-0.262,0.574-0.611,0.574C112.604,7.391,112.342,7.149,112.342,6.816z M112.507,8.479h0.886v5.275h-0.886V8.479z"/>
</g>
<g>
	<rect x="81.859" y="1.859" fill="#59C3ED" width="16.281" height="16.282"/>
	<rect x="82.824" y="2.825" fill="#1F2138" width="14.352" height="14.35"/>
	<path fill="#59C3ED" d="M85.68,6.375h2.031c1.604,0,2.672,0.535,2.672,2.09c0,1.506-1.068,2.205-2.623,2.205h-1.176v2.828H85.68
		V6.375z M87.643,9.942c1.254,0,1.847-0.456,1.847-1.477c0-1.031-0.632-1.36-1.886-1.36h-1.02v2.836L87.643,9.942L87.643,9.942z"/>
	<path fill="#59C3ED" d="M91.045,12.896l0.438-0.584c0.457,0.369,0.933,0.621,1.564,0.621c0.699,0,1.039-0.369,1.039-0.826
		c0-0.533-0.621-0.776-1.205-1c-0.736-0.271-1.574-0.631-1.574-1.524c0-0.835,0.672-1.496,1.818-1.496
		c0.65,0,1.223,0.271,1.643,0.592L94.34,9.253c-0.371-0.273-0.74-0.467-1.215-0.467c-0.66,0-0.963,0.35-0.963,0.758
		c0,0.504,0.572,0.69,1.166,0.913c0.768,0.292,1.613,0.602,1.613,1.604c0,0.854-0.683,1.563-1.924,1.563
		C92.27,13.624,91.551,13.312,91.045,12.896z"/>
</g>
<g>
	<circle fill="#D2F078" cx="131.588" cy="9.772" r="7.157"/>
	<path fill="#6EAC2E" d="M131.423,3.981c-1.38,0.059-2.633,0.605-3.59,1.474l3.59,3.59V3.981z"/>
	<path fill="#6EAC2E" d="M131.029,9.997h-5.059c0.072,1.372,0.629,2.61,1.502,3.558L131.029,9.997z"/>
	<path fill="#6EAC2E" d="M131.029,9.439l-3.592-3.591c-0.867,0.958-1.414,2.21-1.472,3.591H131.029z"/>
	<path fill="#6EAC2E" d="M131.982,3.985v5.06l3.556-3.557C134.591,4.614,133.352,4.06,131.982,3.985z"/>
	<path fill="#6EAC2E" d="M131.423,10.391l-3.554,3.554c0.953,0.85,2.191,1.384,3.554,1.439V10.391z"/>
	<path fill="#6EAC2E" d="M132.376,9.997l3.521,3.521c0.854-0.94,1.396-2.166,1.47-3.521H132.376z"/>
	<path fill="#6EAC2E" d="M132.374,9.439h4.996c-0.06-1.364-0.591-2.601-1.44-3.554L132.374,9.439z"/>
	<path fill="#6EAC2E" d="M131.982,10.391v4.991c1.352-0.073,2.576-0.614,3.519-1.47L131.982,10.391z"/>
	<path fill="#6EAC2E" d="M131.668,17.018c-4.044,0-7.333-3.291-7.333-7.334c0-4.043,3.289-7.332,7.333-7.332
		c4.042,0,7.331,3.289,7.331,7.332C138.999,13.727,135.71,17.018,131.668,17.018z M131.668,2.962c-3.706,0-6.723,3.015-6.723,6.721
		c0,3.708,3.017,6.723,6.723,6.723s6.721-3.016,6.721-6.723C138.389,5.977,135.374,2.962,131.668,2.962z"/>
	<path fill="#6EAC2E" d="M134.58,17.584l0.002-0.002c0.003,0.001,0.003,0.003,0.005,0.004c0.161,0.112,0.381,0.072,0.492-0.089
		c0.112-0.161,0.071-0.382-0.088-0.492c-0.002-0.002-0.005-0.002-0.007-0.003l0.002-0.004l-10.163-7.059l-0.406,0.586L134.58,17.584
		z"/>
	
		<rect x="123.366" y="8.825" transform="matrix(0.5713 -0.8207 0.8207 0.5713 45.1481 105.6667)" fill="#6EAC2E" width="0.715" height="1.58"/>
	<polygon fill="#6EAC2E" points="121.419,8.009 121.001,8.61 122.617,9.287 122.826,8.987 123.035,8.686 121.836,7.409 	"/>
	<path fill="#6EAC2E" d="M135.385,16.614l0.004-0.003c0.002,0.002,0.002,0.004,0.002,0.006c0.139,0.138,0.362,0.139,0.5,0
		c0.139-0.139,0.139-0.363,0-0.5c-0.002-0.002-0.004-0.003-0.006-0.003l0.004-0.005l-8.748-8.75l-0.504,0.505L135.385,16.614z"/>
	
		<rect x="125.762" y="6.054" transform="matrix(0.7061 -0.7081 0.7081 0.7061 32.2237 91.3201)" fill="#6EAC2E" width="0.714" height="1.577"/>
	<path fill="#6EAC2E" d="M125.052,6.357l0.552-0.551c-0.002-0.309-0.261-0.605-0.584-0.925c-0.485-0.488-1.789-0.896-1.789-0.896
		s0.393,1.316,0.881,1.805C124.432,6.111,124.742,6.357,125.052,6.357z"/>
</g>
<g id="Page_1">
	<g id="Layer_1_1_">
		<path id="Shape" fill="#131313" d="M33.675,1.511h-1.078l1.121,1.218v0.578h-2.31V2.629h1.121l-1.121-1.216v-0.58h2.266
			L33.675,1.511L33.675,1.511z M30.951,1.511h-1.078l1.121,1.218v0.578h-2.31V2.629h1.122l-1.122-1.216v-0.58h2.267V1.511
			L30.951,1.511z M28.254,1.539H27.09v1.062h1.164v0.706h-1.99V0.833h1.99V1.539L28.254,1.539z"/>
		<path id="Shape_1_" fill="#1572B6" d="M24.678,17.695L23.496,4.437h12.989l-1.183,13.256l-5.319,1.475L24.678,17.695z"/>
		<path id="Shape_2_" fill="#33A9DC" d="M29.991,18.04l4.297-1.192L35.3,5.521h-5.309V18.04z"/>
		<g id="Group" transform="translate(55.000000, 142.000000)">
			<path id="Shape_3_" fill="#FFFFFF" d="M-25.009-131.676h2.152l0.148-1.666h-2.3v-1.625h0.005h4.072l-0.039,0.436l-0.399,4.481
				h-3.639V-131.676z"/>
			<path id="Shape_4_" fill="#EBEBEB" d="M-25-127.453l-0.007,0.002l-1.811-0.488l-0.116-1.297h-0.88h-0.752l0.228,2.553
				l3.331,0.925l0.008-0.001L-25-127.453L-25-127.453z"/>
			<path id="Shape_5_" fill="#FFFFFF" d="M-22.996-130.118l-0.196,2.179l-1.814,0.488v1.691l3.334-0.924l0.025-0.274l0.282-3.16
				H-22.996z"/>
			<path id="Shape_6_" fill="#EBEBEB" d="M-25.004-134.967v1.009v0.613v0.003h-3.923h-0.005l-0.033-0.364l-0.074-0.825l-0.039-0.436
				H-25.004z"/>
			<path id="Shape_7_" fill="#EBEBEB" d="M-25.009-131.676v1.011v0.61v0.005h-1.783h-0.005l-0.032-0.365l-0.075-0.824l-0.039-0.437
				H-25.009L-25.009-131.676z"/>
		</g>
	</g>
</g>
<g>
	<path fill="#A6A6A6" d="M158.044,16.22l-0.589-11.216c-0.035-0.676-0.612-1.224-1.286-1.224h-12.338
		c-0.674,0-1.251,0.548-1.287,1.224l-0.588,11.216c-0.035,0.676,0.485,1.224,1.16,1.224h13.769
		C157.559,17.443,158.079,16.896,158.044,16.22z"/>
	<path fill="#DCDCDC" d="M158.044,15.608l-0.589-11.216c-0.035-0.676-0.612-1.225-1.286-1.225h-12.338
		c-0.674,0-1.251,0.549-1.287,1.225l-0.588,11.216c-0.035,0.675,0.485,1.224,1.16,1.224h13.769
		C157.559,16.832,158.079,16.283,158.044,15.608z"/>
	<path fill="#303030" d="M143.474,12.345v1.633c0,0.674,0.549,1.222,1.225,1.222h10.604c0.676,0,1.225-0.548,1.225-1.222v-1.633
		H143.474z"/>
	<path fill="#5F5F5F" d="M156.033,3.453c-0.027-0.547-0.494-0.896-1.04-0.896h-9.986c-0.546,0-1.013,0.381-1.042,0.928l-0.231,4.374
		h12.534L156.033,3.453z"/>
	<path fill="#4C4C4C" d="M143.733,7.858l-0.244,4.61c-0.028,0.547,0.392,0.896,0.939,0.896h11.143c0.548,0,0.968-0.381,0.939-0.928
		l-0.243-4.579H143.733z"/>
	<path fill="#FF9B4F" d="M152.124,7.716c-0.921-0.996-3.46-0.515-2.896-1.507c0.276-0.487,1.408-0.091,1.408-0.091
		s0.869,0.341,1.225-0.102s-0.251-0.782-0.974-0.907c-0.725-0.124-3.371-0.249-3.371,1.474c0,0.783,0.641,1.083,1.349,1.275h3.376
		C152.205,7.812,152.168,7.764,152.124,7.716z"/>
	<path fill="#F18330" d="M148.865,7.858c0.85,0.231,1.8,0.309,1.864,0.877c0.039,0.51-1.041,0.873-2.306,0.307
		c-1.132-0.51-1.764,0.77-0.789,1.11c1.189,0.412,2.607,0.543,3.595,0.169c0.945-0.357,1.821-1.415,1.012-2.463H148.865z"/>
</g>
</svg>
