<?xml version="1.0" encoding="utf-8"?>
<!DOCTYPE svg PUBLIC "-//W3C//DTD SVG 1.1//EN" "http://www.w3.org/Graphics/SVG/1.1/DTD/svg11.dtd">

<svg version="1.1" xmlns="http://www.w3.org/2000/svg" xmlns:xlink="http://www.w3.org/1999/xlink" viewBox="0 0 30 30" xml:space="preserve">
	<path fill="#F7FBF5" d="M0,0v30h30V0H0z M28.794,4.583c0.169,0.333,0.039,0.75-0.294,1.125s0,1.333,0,1.792s0.375,1.083,0,1.917
		s0.208,0.958,0.255,1.958s0.12,1.125-0.255,1.792s-0.625,1.667-0.25,2.792c0.375,1.125-0.125,2.583-0.375,3.042
		s0.042,0.792,0.209,1.208s0.374,1.501,0.083,2.542s-0.334,2.417,0.166,3s0.417,2.709,0.417,2.709s0,0-0.708,0.335
		s-1.209-0.252-1.959-0.627s-1.5,0.333-2.25,0.333s-1.791-0.291-2.583-0.708s-1.5,0.583-2.167,0.708s-0.5,0-1-0.375
		s-3.167,0.542-3.792,0.641s-0.792-0.057-2.125-0.599s-1.708-0.083-2.75,0.333s-1.833,0.209-2.333,0s-0.958-0.041-1.542,0.085
		S4.5,28.959,4.042,28.5s-2.667,0.334-2.542,0s-0.208-2.625-0.25-3.166s0.083-0.875,0.245-1.584s-0.328-0.708-0.466-1.416
		s0.43-1.125,0.477-1.584s-0.214-1.041-0.421-1.833s0.208-1.125,0.416-1.375s-0.125-0.459-0.358-0.959s0.317-1.667,0.42-2.208
		s0.105-0.5-0.269-1.167s0.04-0.875,0.207-1.625s0.125-0.667-0.125-1.292S1.5,9.125,1.842,8.083S1.833,6.833,1.5,5.75
		S2.367,4.175,1.792,3C1.271,1.938,1.5,1.5,1.5,1.5C1.833,0,3.333,1.583,3.875,1.792S4.542,1.833,5.167,1.5s0.75,0.083,1.208,0.292
		s0.917,0,2.167-0.63s2.417,0.213,3.208,0.505s1-0.042,1.708-0.167S14.292,1.667,15,1.75s1.042,0.083,1.542-0.25s0.333,0,1.042,0.25
		s1-0.125,2.291-0.454s2.5-0.004,3.584,0.454s1.083,0.208,1.958-0.25s3.083,0,3.083,0s0.417,0.25,0.368,0.458S28.917,3,28.5,3.5
		S28.625,4.25,28.794,4.583z"/>
</svg>