<?xml version="1.0" encoding="utf-8"?>
<!DOCTYPE svg PUBLIC "-//W3C//DTD SVG 1.1//EN" "http://www.w3.org/Graphics/SVG/1.1/DTD/svg11.dtd">

<svg version="1.1" xmlns="http://www.w3.org/2000/svg" xmlns:xlink="http://www.w3.org/1999/xlink" viewBox="0 0 100 100" xml:space="preserve">

	<path fill="#FFF" d="M39.119,58.336c0,1.969-1.597,3.566-3.567,3.566l0,0c-1.97,0-3.567-1.598-3.567-3.566l0,0
	c0-1.971,1.597-3.567,3.567-3.567l0,0C37.522,54.769,39.119,56.365,39.119,58.336L39.119,58.336z"/>
	<path fill="#FFF" d="M68.847,58.336c0,1.969-1.598,3.566-3.567,3.566l0,0c-1.971,0-3.567-1.598-3.567-3.566l0,0
	c0-1.971,1.597-3.567,3.567-3.567l0,0C67.249,54.769,68.847,56.365,68.847,58.336L68.847,58.336z"/>
	<path stroke="#FFF"
	stroke-width="4"
	stroke-linecap="round"
	stroke-linejoin="round"
	fill="none" d="M47,69v-2.019c0-1.977,1.023-3.577,3-3.577l0,0c1.977,0,3,1.601,3,3.577V69"/>
	<path stroke="#FFF"
	stroke-width="4"
	stroke-linecap="round"
	stroke-linejoin="round"
	fill="none" d="M22,51v-8.763c0-13.574,8.707-24.999,21.788-28.374c0,0-3.084-2.052-5.537-2.274c0,0,7.369-2.081,12.767,1.263
	c0,0,4.418-4.013,10.585-2.75l-5.152,3.336C70.128,16.16,80,28.02,80,42.237V51"/>
	<path stroke="#FFF"
	stroke-width="4"
	stroke-linecap="round"
	stroke-linejoin="round"
	fill="none" d="M76,49.715c0-2.826-3.055-12.247-7.781-9.986c-12.894,6.167-35.499,7.057-35.499,7.057l5.568-5.595L24,45.85
	v4.756v13.823c-6-1.635-8.324-9.959-5.306-13.105C21.712,48.174,24,52.984,24,52.984v12.188c0,13.79,12.208,24.971,26,24.971l0,0
	c13.791,0,26-11.181,26-24.971v-9.216c0,0-0.628-5.899,3.98-5.351C83.729,51.053,83,63.091,76,64.429V49.715z"/>
	<path stroke="#FFF"
	stroke-width="4"
	stroke-linecap="round"
	stroke-linejoin="round"
	fill="none" d="M36.752,74.091c2.97,4.562,8.114,7.581,13.96,7.581c5.847,0,10.991-3.02,13.96-7.581"/>

</svg>