<?xml version="1.0" encoding="utf-8"?>
<!DOCTYPE svg PUBLIC "-//W3C//DTD SVG 1.1//EN" "http://www.w3.org/Graphics/SVG/1.1/DTD/svg11.dtd">

<svg version="1.1" xmlns="http://www.w3.org/2000/svg" xmlns:xlink="http://www.w3.org/1999/xlink" viewBox="0 0 100 100" xml:space="preserve">	<path stroke="#FFF"
		  stroke-width="4"
		  stroke-linecap="round"
		  stroke-linejoin="round"
		  fill="none" d="M65.917,39.5c-4.456-3.942-17.773-5.295-24.141,2.197
			c-7.151,8.417-6.787,16.729-1.066,24.908c5.721,8.18,24.096,10.74,31.016-3.267c6.924-14.005-5.312-23.472-5.312-23.472
			l6.113-8.17c-17.553-11.062-29.986-3.042-33.92-0.729c-3.934,2.315-12.448,9.945-11.692,25.417
			C27.671,71.86,40.089,83.993,56.473,83.19c16.382-0.8,27.083-14.8,27.313-29.269c0.226-13.938-11.259-22.225-11.259-22.225
			l2.293-2.82"/>

	<path stroke="#FFF"
		  stroke-width="4"
		  stroke-linecap="round"
		  stroke-linejoin="round" fill="none" d="M74.98,28.543h13.78c0,0,5.101-0.003,5.101,6.207s0,39.69,0,39.69
			s-0.24,4.996-3.684,4.996c-1.216,0-8.328,0-20.206,0c0,0-6.289,4.118-15.016,4.118c-8.62,0-14.891-4.118-14.891-4.118
			c-12.023,0-29.545,0-29.545,0s-5.313-0.272-5.313-4.863c0-4.59,0-41.039,0-41.039s-0.156-4.991,5.448-4.991
			c6.48,0,11.451,0,11.451,0l0.004,8.247l-8.261-0.031l-0.006-8.215H30.27h4.488v-3.919c0,0-1.044-5.111,6.854-5.111
			c7.897,0,28.147,0,28.147,0s5.221,0.319,5.221,5.583C74.98,26.49,74.98,28.543,74.98,28.543"/>
</svg>