<?xml version="1.0" encoding="utf-8"?>
<!-- Generator: Adobe Illustrator 16.0.0, SVG Export Plug-In . SVG Version: 6.00 Build 0)  -->
<!DOCTYPE svg PUBLIC "-//W3C//DTD SVG 1.1//EN" "http://www.w3.org/Graphics/SVG/1.1/DTD/svg11.dtd">
<svg version="1.1" id="Layer_1" xmlns="http://www.w3.org/2000/svg" xmlns:xlink="http://www.w3.org/1999/xlink" x="0px" y="0px"
	 width="120px" height="20px" viewBox="0 0 120 20" enable-background="new 0 0 120 20" xml:space="preserve">
<path id="f" fill="#FFFFFF" d="M33.374,19.987v-7.994h2.682l0.403-3.114h-3.085V6.888c0-0.9,0.25-1.516,1.543-1.516l1.65-0.001
	V2.584c-0.286-0.037-1.265-0.122-2.404-0.122c-2.378,0-4.007,1.451-4.007,4.117v2.299h-2.69v3.114h2.69v7.994H33.374z"/>
<path fill="#FFFFFF" d="M52.916,13.179c-0.217,0.104-0.633,0.195-0.943,0.202c-0.936,0.024-1.117-0.658-1.126-1.152V8.59h2.349V6.82
	h-2.339V3.842c0,0-1.685,0-1.711,0c-0.029,0-0.079,0.024-0.086,0.088c-0.1,0.911-0.527,2.51-2.299,3.15v1.509h1.182v3.819
	c0,1.31,0.965,3.167,3.511,3.122c0.859-0.015,1.813-0.374,2.025-0.685L52.916,13.179"/>
<path id="path3043" fill="#FFFFFF" d="M11.868,11.712c0.257-0.704,1.201-3.38,1.352-4.082c0.171-0.794-0.187-0.871-1.002-0.604
	c-0.815,0.265-2.905,1.041-3.257,1.166C8.609,8.315,6.897,8.89,6.542,9.063c-0.725,0.388-0.372,0.982,0.439,1.29
	c2.423,1.164,1.734,0.571,2.817,2.722c0.222,0.55,0.747,1.487,1.25,0.778C11.312,13.452,11.666,12.266,11.868,11.712z"/>
<path id="path26" fill="#FFFFFF" d="M70.291,2.231c-4.657,0-7.127,3.122-7.127,6.529c0,1.58,0.841,3.552,2.188,4.179
	c0.206,0.095,0.314,0.053,0.361-0.146c0.038-0.15,0.218-0.883,0.299-1.225c0.027-0.107,0.014-0.2-0.074-0.31
	c-0.445-0.538-0.803-1.532-0.803-2.461c0-2.377,1.803-4.68,4.87-4.68c2.652,0,4.507,1.806,4.507,4.388
	c0,2.917-1.473,4.942-3.391,4.942c-1.058,0-1.852-0.874-1.598-1.953c0.307-1.281,0.896-2.667,0.896-3.588
	c0-0.832-0.448-1.521-1.369-1.521c-1.082,0-1.95,1.121-1.95,2.621c0,0.955,0.323,1.601,0.323,1.601s-1.071,4.521-1.265,5.363
	c-0.334,1.429,0.043,3.743,0.076,3.946c0.018,0.106,0.139,0.143,0.207,0.051c0.106-0.139,1.393-2.069,1.758-3.47
	c0.129-0.504,0.668-2.563,0.668-2.563c0.354,0.67,1.383,1.24,2.472,1.24c3.253,0,5.601-2.994,5.601-6.712
	C76.942,4.897,74.035,2.231,70.291,2.231"/>
<path fill="#FFFFFF" d="M96.562,7.926c-0.003-0.008-0.005-0.016-0.005-0.025c-0.005-0.015-0.008-0.031-0.012-0.048
	c-0.003-0.009-0.005-0.018-0.008-0.026c-0.005-0.014-0.009-0.028-0.014-0.042c-0.005-0.01-0.01-0.018-0.015-0.027
	c-0.005-0.013-0.012-0.026-0.019-0.038c-0.005-0.01-0.01-0.017-0.015-0.027c-0.01-0.012-0.018-0.023-0.023-0.033
	c-0.008-0.009-0.015-0.017-0.021-0.025c-0.008-0.011-0.017-0.02-0.026-0.03c-0.01-0.008-0.017-0.016-0.023-0.023
	c-0.011-0.01-0.021-0.018-0.031-0.026c-0.01-0.007-0.017-0.013-0.026-0.019c-0.005-0.002-0.007-0.004-0.009-0.007l-6.001-4
	c-0.189-0.127-0.438-0.127-0.627,0l-6.001,4c-0.002,0.002-0.007,0.005-0.009,0.007c-0.01,0.006-0.017,0.012-0.026,0.019
	c-0.01,0.008-0.021,0.017-0.031,0.026c-0.007,0.007-0.014,0.015-0.023,0.023c-0.01,0.01-0.019,0.02-0.026,0.029
	c-0.007,0.009-0.014,0.017-0.021,0.026c-0.006,0.01-0.014,0.021-0.021,0.033c-0.007,0.01-0.012,0.017-0.017,0.027
	c-0.007,0.011-0.014,0.025-0.019,0.038c-0.005,0.008-0.01,0.018-0.015,0.027c-0.005,0.013-0.009,0.027-0.014,0.042
	c-0.003,0.008-0.005,0.017-0.009,0.026c-0.003,0.017-0.006,0.033-0.011,0.048c0,0.009-0.002,0.017-0.005,0.025
	C83.437,7.951,83.435,7.975,83.435,8v4c0,0.024,0.002,0.049,0.004,0.074c0.003,0.008,0.005,0.017,0.005,0.024
	c0.005,0.016,0.008,0.03,0.011,0.047c0.004,0.011,0.006,0.019,0.009,0.027c0.005,0.014,0.009,0.027,0.014,0.043
	c0.005,0.009,0.01,0.018,0.015,0.025c0.005,0.014,0.012,0.026,0.019,0.038c0.005,0.009,0.01,0.017,0.017,0.025
	c0.008,0.013,0.016,0.024,0.021,0.033c0.008,0.011,0.015,0.018,0.021,0.027c0.008,0.009,0.017,0.02,0.026,0.029
	c0.01,0.009,0.017,0.015,0.023,0.022c0.011,0.009,0.021,0.019,0.031,0.026c0.01,0.007,0.017,0.015,0.026,0.019
	c0.002,0.002,0.007,0.005,0.009,0.008l6.001,3.999c0.095,0.065,0.204,0.096,0.313,0.096s0.219-0.03,0.313-0.096l6.001-3.999
	c0.002-0.003,0.004-0.006,0.009-0.008c0.01-0.004,0.017-0.012,0.026-0.019c0.01-0.008,0.021-0.018,0.031-0.026
	c0.007-0.008,0.014-0.014,0.023-0.022c0.01-0.01,0.019-0.021,0.026-0.029c0.007-0.01,0.014-0.017,0.021-0.027
	c0.006-0.009,0.014-0.021,0.023-0.033c0.005-0.009,0.01-0.017,0.015-0.025c0.007-0.012,0.014-0.024,0.019-0.038
	c0.005-0.008,0.01-0.017,0.015-0.025c0.005-0.016,0.009-0.029,0.014-0.043c0.003-0.009,0.005-0.017,0.008-0.027
	c0.004-0.017,0.007-0.031,0.012-0.047c0-0.008,0.002-0.017,0.005-0.024c0.002-0.025,0.004-0.05,0.004-0.074V8
	C96.565,7.975,96.563,7.951,96.562,7.926z M90.565,5.053l4.418,2.948l-1.974,1.32l-2.444-1.636V5.053z M89.435,5.053v2.632
	L86.99,9.322l-1.977-1.32L89.435,5.053z M84.562,9.056L85.976,10l-1.413,0.944V9.056z M89.435,14.947l-4.421-2.948l1.977-1.32
	l2.444,1.637V14.947L89.435,14.947z M90,11.335L88.005,10L90,8.665L91.995,10L90,11.335z M90.565,14.947v-2.632l2.444-1.637
	l1.974,1.32L90.565,14.947z M95.438,10.944L94.024,10l1.413-0.944V10.944z"/>
<path fill="#FFFFFF" d="M112.693,18.86c0-0.348,0.015-1.483,0.015-2.89c0-0.983-0.336-1.622-0.713-1.948
	c2.346-0.263,4.807-1.154,4.807-5.198c0-1.151-0.406-2.09-1.081-2.829c0.107-0.264,0.47-1.334-0.104-2.786
	c0,0-0.885-0.281-2.896,1.08c-0.839-0.233-1.741-0.35-2.636-0.355c-0.896,0.006-1.797,0.122-2.636,0.355
	c-2.013-1.361-2.896-1.083-2.896-1.083c-0.574,1.452-0.21,2.522-0.104,2.789c-0.672,0.739-1.083,1.678-1.083,2.829
	c0,4.035,2.459,4.938,4.798,5.205c-0.3,0.261-0.573,0.726-0.668,1.405c-0.6,0.27-2.127,0.736-3.065-0.872
	c0,0-0.556-1.014-1.614-1.087c0,0-1.029-0.011-0.072,0.642c0,0,0.691,0.323,1.168,1.54c0,0,0.619,1.876,3.549,1.24
	c0.004,0.879,0.016,1.709,0.016,1.96c0,0.272-0.19,0.585-0.689,0.508c1.038,0.344,2.146,0.535,3.299,0.535
	c1.152,0,2.259-0.191,3.297-0.535C112.881,19.443,112.693,19.134,112.693,18.86z"/>
</svg>
